<?xml version="1.0" encoding="UTF-8"?>
<svg id="Capa_1" data-name="Capa 1" xmlns="http://www.w3.org/2000/svg" viewBox="0 0 153.27 122.62">
  <defs>
    <style>
      .cls-1 {
        fill: #e35221;
      }
    </style>
  </defs>
  <path class="cls-1" d="M122.62,0H30.65C10.73,0,0,15.79,0,30.65v61.31c0,19.92,15.79,30.65,30.65,30.65h91.96c14.87,0,30.65-10.73,30.65-30.65V30.65c0-14.87-10.73-30.65-30.65-30.65ZM137.94,90.16c0,15.33-15.33,15.33-15.33,15.33V36.52l-45.98,30.65-45.98-30.65v68.97s-15.33,0-15.33-15.33V28.85s0-15.33,15.33-15.33l45.98,34.49L122.62,13.53c15.33,0,15.33,15.33,15.33,15.33v61.31Z"/>
</svg>