<?xml version="1.0" encoding="UTF-8"?>
<svg id="Capa_1" data-name="Capa 1" xmlns="http://www.w3.org/2000/svg" viewBox="0 0 877.17 118.43">
  <defs>
    <style>
      .cls-1 {
        fill: #c7e2ef;
      }

      .cls-2 {
        fill: #fff;
      }
    </style>
  </defs>
  <rect class="cls-2" width="877.17" height="118.43"/>
  <g id="Capa_1-2" data-name="Capa 1-2">
    <path class="cls-1" d="M550.85,17.34l2.25,17.77,9.29-15.31c1.83-3.01,6.44-.95,5.43,2.41l-5.17,17.14,14.7-10.21c2.89-2,6.27,1.75,3.98,4.42l-11.7,13.56,17.59-3.35c3.46-.66,5.01,4.15,1.84,5.65l-16.2,7.63,17.42,4.1c3.43.8,2.9,5.83-.62,5.9l-17.9.39,14.25,10.83c2.8,2.13.28,6.51-2.97,5.14l-16.51-6.93,8.61,15.7c1.7,3.08-2.4,6.06-4.8,3.49l-12.26-13.04,1.49,17.84c.3,3.5-4.65,4.56-5.8,1.23l-5.89-16.91-5.89,16.91c-1.16,3.32-6.1,2.27-5.8-1.23l1.49-17.84-12.26,13.04c-2.41,2.57-6.5-.41-4.8-3.49l8.61-15.7-16.51,6.93c-3.24,1.37-5.77-3.02-2.97-5.14l14.25-10.83-17.9-.39c-3.51-.08-4.04-5.1-.62-5.9l17.42-4.1-16.2-7.63c-3.18-1.5-1.62-6.3,1.84-5.65l17.59,3.35-11.7-13.56c-2.3-2.67,1.09-6.42,3.98-4.42l14.7,10.21-5.17-17.14c-1.01-3.37,3.6-5.42,5.43-2.41l9.29,15.31,2.25-17.77c.44-3.49,5.5-3.49,5.94,0h.01Z"/>
  </g>
  <g id="Capa_1-2-2" data-name="Capa 1-2">
    <path class="cls-1" d="M669.66,17.34l2.25,17.77,9.29-15.31c1.83-3.01,6.44-.95,5.43,2.41l-5.17,17.14,14.7-10.21c2.89-2,6.27,1.75,3.98,4.42l-11.7,13.56,17.59-3.35c3.46-.66,5.01,4.15,1.84,5.65l-16.2,7.63,17.42,4.1c3.43.8,2.9,5.83-.62,5.9l-17.9.39,14.25,10.83c2.8,2.13.28,6.51-2.97,5.14l-16.51-6.93,8.61,15.7c1.7,3.08-2.4,6.06-4.8,3.49l-12.26-13.04,1.49,17.84c.3,3.5-4.65,4.56-5.8,1.23l-5.89-16.91-5.89,16.91c-1.16,3.32-6.1,2.27-5.8-1.23l1.49-17.84-12.26,13.04c-2.41,2.57-6.5-.41-4.8-3.49l8.61-15.7-16.51,6.93c-3.24,1.37-5.77-3.02-2.97-5.14l14.25-10.83-17.9-.39c-3.51-.08-4.04-5.1-.62-5.9l17.42-4.1-16.2-7.63c-3.18-1.5-1.62-6.3,1.84-5.65l17.59,3.35-11.7-13.56c-2.3-2.67,1.09-6.42,3.98-4.42l14.7,10.21-5.17-17.14c-1.01-3.37,3.6-5.42,5.43-2.41l9.29,15.31,2.25-17.77c.44-3.49,5.5-3.49,5.94,0h.01Z"/>
  </g>
  <g id="Capa_1-2-3" data-name="Capa 1-2">
    <path class="cls-1" d="M788.48,17.34l2.25,17.77,9.29-15.31c1.83-3.01,6.44-.95,5.43,2.41l-5.17,17.14,14.7-10.21c2.89-2,6.27,1.75,3.98,4.42l-11.7,13.56,17.59-3.35c3.46-.66,5.01,4.15,1.84,5.65l-16.2,7.63,17.42,4.1c3.43.8,2.9,5.83-.62,5.9l-17.9.39,14.25,10.83c2.8,2.13.28,6.51-2.97,5.14l-16.51-6.93,8.61,15.7c1.7,3.08-2.4,6.06-4.8,3.49l-12.26-13.04,1.49,17.84c.3,3.5-4.65,4.56-5.8,1.23l-5.89-16.91-5.89,16.91c-1.16,3.32-6.1,2.27-5.8-1.23l1.49-17.84-12.26,13.04c-2.41,2.57-6.5-.41-4.8-3.49l8.61-15.7-16.51,6.93c-3.24,1.37-5.77-3.02-2.97-5.14l14.25-10.83-17.9-.39c-3.51-.08-4.04-5.1-.62-5.9l17.42-4.1-16.2-7.63c-3.18-1.5-1.62-6.3,1.84-5.65l17.59,3.35-11.7-13.56c-2.3-2.67,1.09-6.42,3.98-4.42l14.7,10.21-5.17-17.14c-1.01-3.37,3.6-5.42,5.43-2.41l9.29,15.31,2.25-17.77c.44-3.49,5.5-3.49,5.94,0h.01Z"/>
  </g>
</svg>